<svg xmlns="http://www.w3.org/2000/svg" viewBox="0 0 512 512" role="img" aria-label="AllShots"><path d="M45 138V73A28 28 0 0 1 73 45H138M467 138V73A28 28 0 0 0 439 45H374M45 374V439A28 28 0 0 0 73 467H138M467 374V439A28 28 0 0 1 439 467H374" fill="none" stroke="#F4EEE1" stroke-width="22" stroke-linecap="round" stroke-linejoin="round"/><rect x="89" y="89" width="32" height="32" rx="5" fill="#6B212F"/><rect x="391" y="89" width="32" height="32" rx="5" fill="#F4EEE1"/><rect x="89" y="391" width="32" height="32" rx="5" fill="#6B212F"/><rect x="391" y="391" width="32" height="32" rx="5" fill="#6B212F"/><circle cx="256" cy="256" r="145" fill="#E4CAAD"/><path d="M401 256A145 145 0 0 1 256 401V377A121 121 0 0 0 377 256Z" fill="#6B212F"/><circle cx="256" cy="256" r="121" fill="#FAF1E3"/><circle cx="256" cy="256" r="97" fill="#1F2123"/><circle cx="251.6" cy="257.9" r="59.8" fill="#9C8C7E"/><circle cx="269.9" cy="252.6" r="64.1" fill="#29292B"/><circle cx="293" cy="216.5" r="21.5" fill="#FAF1E3"/></svg>
